<svg width="240" height="120" viewBox="0 0 240 120" fill="none" xmlns="http://www.w3.org/2000/svg">
<path d="M82.6953 74.8742H90.3724V104.863H82.6953V74.8742ZM151.309 83.5108C151.069 83.2709 148.67 81.8315 144.831 81.8315C140.033 81.8315 136.434 85.1902 136.434 89.7484C136.434 94.3066 139.793 97.6653 144.831 97.6653C148.43 97.6653 150.829 96.2259 151.309 95.986V104.143C150.349 104.383 147.71 105.102 144.351 105.102C135.715 105.102 128.278 99.3447 128.278 89.5085C128.278 80.6319 134.995 73.9146 144.351 73.9146C147.95 73.9146 150.589 74.8742 151.309 74.8742V83.5108ZM72.1395 83.5108C71.8995 83.2709 69.5005 81.8315 65.662 81.8315C60.8638 81.8315 57.2652 85.1902 57.2652 89.7484C57.2652 94.3066 60.6239 97.6653 65.662 97.6653C69.2606 97.6653 71.6596 96.2259 72.1395 95.986V104.143C71.1798 104.383 68.5408 105.102 65.1822 105.102C56.7854 105.102 49.1084 99.3447 49.1084 89.5085C49.1084 80.6319 55.8258 73.9146 65.1822 73.9146C68.7808 73.9146 71.4197 74.8742 72.1395 74.8742V83.5108ZM190.893 89.9883C190.893 98.625 184.176 105.582 175.059 105.582C165.943 105.582 159.226 98.625 159.226 89.9883C159.226 81.3517 165.943 74.3944 175.059 74.3944C184.416 74.3944 190.893 81.3517 190.893 89.9883ZM175.059 82.0714C170.501 82.0714 167.143 85.67 167.143 89.9883C167.143 94.3066 170.501 97.9052 175.059 97.9052C179.618 97.9052 182.976 94.3066 182.976 89.9883C182.976 85.67 179.618 82.0714 175.059 82.0714ZM118.921 81.8315C118.921 81.8315 115.563 80.8719 112.924 80.8719C109.805 80.8719 108.125 81.8315 108.125 83.2709C108.125 85.1902 110.285 85.67 111.484 86.1498L113.643 86.8695C118.441 88.5489 120.841 91.9076 120.841 95.5062C120.841 102.943 114.123 105.582 108.365 105.582C104.287 105.582 100.448 104.863 100.209 104.863V97.9052C100.928 98.1451 104.047 99.1048 107.406 99.1048C111.244 99.1048 112.924 97.9052 112.924 96.2259C112.924 94.7864 111.484 93.8268 109.565 93.347C109.085 93.1071 108.365 92.8672 107.886 92.8672C103.567 91.4278 100.209 89.0287 100.209 83.9906C100.209 78.4728 104.527 74.6343 111.484 74.6343C115.083 74.6343 118.681 75.5939 118.921 75.5939V81.8315Z" fill="#0EB2F8"/>
<path d="M41.191 42.7268C41.1974 42.2209 41.1026 41.7189 40.9119 41.2502C40.7213 40.7816 40.4388 40.3559 40.0811 39.9982C39.7234 39.6404 39.2976 39.3579 38.829 39.1673C38.3604 38.9767 37.8584 38.8818 37.3525 38.8882C36.8466 38.8818 36.3446 38.9767 35.876 39.1673C35.4073 39.3579 34.9816 39.6404 34.6239 39.9982C34.2662 40.3559 33.9837 40.7816 33.793 41.2502C33.6024 41.7189 33.5075 42.2209 33.514 42.7268V50.6437C33.5075 51.1495 33.6024 51.6516 33.793 52.1202C33.9837 52.5888 34.2662 53.0145 34.6239 53.3723C34.9816 53.73 35.4073 54.0125 35.876 54.2031C36.3446 54.3937 36.8466 54.4886 37.3525 54.4822C37.8584 54.4886 38.3604 54.3937 38.829 54.2031C39.2976 54.0125 39.7234 53.73 40.0811 53.3723C40.4388 53.0145 40.7213 52.5888 40.9119 52.1202C41.1026 51.6516 41.1974 51.1495 41.191 50.6437V42.7268Z" fill="#0EB2F8"/>
<path d="M61.8232 32.4108C61.8296 31.9049 61.7347 31.4029 61.5441 30.9343C61.3535 30.4657 61.071 30.0399 60.7132 29.6822C60.3555 29.3245 59.9298 29.042 59.4612 28.8514C58.9926 28.6607 58.4905 28.5658 57.9847 28.5723C55.8255 28.5723 54.386 30.2516 54.386 32.4108V50.6437C54.3796 51.1496 54.4745 51.6516 54.6651 52.1202C54.8557 52.5889 55.1382 53.0146 55.496 53.3723C55.8537 53.73 56.2794 54.0125 56.748 54.2032C57.2167 54.3938 57.7187 54.4887 58.2246 54.4822C58.7304 54.4887 59.2325 54.3938 59.7011 54.2032C60.1697 54.0125 60.5954 53.73 60.9532 53.3723C61.3109 53.0146 61.5934 52.5889 61.784 52.1202C61.9746 51.6516 62.0695 51.1496 62.0631 50.6437V32.4108H61.8232ZM82.6951 18.2563C82.7015 17.7504 82.6066 17.2484 82.416 16.7798C82.2254 16.3112 81.9429 15.8854 81.5851 15.5277C81.2274 15.17 80.8017 14.8875 80.3331 14.6968C79.8644 14.5062 79.3624 14.4113 78.8565 14.4178C78.3507 14.4113 77.8486 14.5062 77.38 14.6968C76.9114 14.8875 76.4857 15.17 76.1279 15.5277C75.7702 15.8854 75.4877 16.3112 75.2971 16.7798C75.1065 17.2484 75.0116 17.7504 75.018 18.2563V58.0808C75.0116 58.5867 75.1065 59.0887 75.2971 59.5574C75.4877 60.026 75.7702 60.4517 76.1279 60.8094C76.4857 61.1672 76.9114 61.4497 77.38 61.6403C77.8486 61.8309 78.3507 61.9258 78.8565 61.9193C79.3624 61.9258 79.8644 61.8309 80.3331 61.6403C80.8017 61.4497 81.2274 61.1672 81.5851 60.8094C81.9429 60.4517 82.2254 60.026 82.416 59.5574C82.6066 59.0887 82.7015 58.5867 82.6951 58.0808V18.2563ZM103.327 32.4108C103.333 31.9049 103.239 31.4029 103.048 30.9343C102.857 30.4657 102.575 30.0399 102.217 29.6822C101.859 29.3245 101.434 29.042 100.965 28.8514C100.496 28.6607 99.9944 28.5658 99.4885 28.5723C98.9827 28.5658 98.4806 28.6607 98.012 28.8514C97.5434 29.042 97.1177 29.3245 96.7599 29.6822C96.4022 30.0399 96.1197 30.4657 95.9291 30.9343C95.7385 31.4029 95.6436 31.9049 95.65 32.4108V50.6437C95.6436 51.1496 95.7385 51.6516 95.9291 52.1202C96.1197 52.5889 96.4022 53.0146 96.7599 53.3723C97.1177 53.73 97.5434 54.0125 98.012 54.2032C98.4806 54.3938 98.9827 54.4887 99.4885 54.4822C99.9944 54.4887 100.496 54.3938 100.965 54.2032C101.434 54.0125 101.859 53.73 102.217 53.3723C102.575 53.0146 102.857 52.5889 103.048 52.1202C103.239 51.6516 103.333 51.1496 103.327 50.6437V32.4108Z" fill="#0EB2F8"/>
<path d="M123.959 42.7268C123.965 42.2209 123.87 41.7189 123.68 41.2502C123.489 40.7816 123.206 40.3559 122.849 39.9982C122.491 39.6404 122.065 39.3579 121.597 39.1673C121.128 38.9767 120.626 38.8818 120.12 38.8882C119.614 38.8818 119.112 38.9767 118.644 39.1673C118.175 39.3579 117.749 39.6404 117.391 39.9982C117.034 40.3559 116.751 40.7816 116.561 41.2502C116.37 41.7189 116.275 42.2209 116.282 42.7268V50.6437C116.275 51.1495 116.37 51.6516 116.561 52.1202C116.751 52.5888 117.034 53.0145 117.391 53.3723C117.749 53.73 118.175 54.0125 118.644 54.2031C119.112 54.3937 119.614 54.4886 120.12 54.4822C120.626 54.4886 121.128 54.3937 121.597 54.2031C122.065 54.0125 122.491 53.73 122.849 53.3723C123.206 53.0145 123.489 52.5888 123.68 52.1202C123.87 51.6516 123.965 51.1495 123.959 50.6437V42.7268Z" fill="#0EB2F8"/>
<path d="M144.591 32.4107C144.591 31.3927 144.187 30.4164 143.467 29.6965C142.747 28.9766 141.771 28.5722 140.753 28.5722C139.735 28.5722 138.758 28.9766 138.038 29.6965C137.318 30.4164 136.914 31.3927 136.914 32.4107V50.6437C136.914 51.6617 137.318 52.638 138.038 53.3579C138.758 54.0777 139.735 54.4822 140.753 54.4822C141.771 54.4822 142.747 54.0777 143.467 53.3579C144.187 52.638 144.591 51.6617 144.591 50.6437V32.4107ZM165.223 18.2562C165.223 17.2382 164.819 16.2619 164.099 15.542C163.379 14.8221 162.403 14.4177 161.385 14.4177C160.367 14.4177 159.39 14.8221 158.67 15.542C157.95 16.2619 157.546 17.2382 157.546 18.2562V58.0808C157.546 59.0988 157.95 60.0751 158.67 60.795C159.39 61.5149 160.367 61.9193 161.385 61.9193C162.403 61.9193 163.379 61.5149 164.099 60.795C164.819 60.0751 165.223 59.0988 165.223 58.0808V18.2562ZM185.855 32.4107C185.855 31.9067 185.756 31.4075 185.563 30.9418C185.37 30.4761 185.087 30.0529 184.731 29.6965C184.374 29.3401 183.951 29.0573 183.485 28.8644C183.02 28.6715 182.521 28.5722 182.017 28.5722C181.512 28.5722 181.013 28.6715 180.548 28.8644C180.082 29.0573 179.659 29.3401 179.302 29.6965C178.946 30.0529 178.663 30.4761 178.47 30.9418C178.277 31.4075 178.178 31.9067 178.178 32.4107V50.6437C178.178 51.1477 178.277 51.6469 178.47 52.1126C178.663 52.5783 178.946 53.0015 179.302 53.3579C179.659 53.7143 180.082 53.9971 180.548 54.19C181.013 54.3829 181.512 54.4822 182.017 54.4822C182.521 54.4822 183.02 54.3829 183.485 54.19C183.951 53.9971 184.374 53.7143 184.731 53.3579C185.087 53.0015 185.37 52.5783 185.563 52.1126C185.756 51.6469 185.855 51.1477 185.855 50.6437V32.4107ZM206.487 42.7267C206.487 41.7087 206.083 40.7324 205.363 40.0125C204.643 39.2926 203.667 38.8882 202.649 38.8882C201.63 38.8882 200.654 39.2926 199.934 40.0125C199.214 40.7324 198.81 41.7087 198.81 42.7267V50.6437C198.81 51.6617 199.214 52.638 199.934 53.3579C200.654 54.0777 201.63 54.4822 202.649 54.4822C203.667 54.4822 204.643 54.0777 205.363 53.3579C206.083 52.638 206.487 51.6617 206.487 50.6437V42.7267Z" fill="#0EB2F8"/>
</svg>
