<svg width="97" height="136" viewBox="0 0 97 136" fill="none" xmlns="http://www.w3.org/2000/svg">
<g clip-path="url(#clip0_13_41)">
<path d="M95.9581 26.5996L87.2427 124.235L48.0665 135.095L8.99819 124.25L0.291992 26.5996H95.9581Z" fill="#E44D26"/>
<path d="M48.125 126.794L79.7813 118.017L87.2292 34.584H48.125V126.794Z" fill="#F16529"/>
<path d="M31.1825 58.5371H48.1249V46.5605H18.0938L18.3804 49.7736L21.324 82.7773H48.1249V70.8011H32.277L31.1825 58.5371Z" fill="#EBEBEB"/>
<path d="M33.8818 88.7656H21.8594L23.5373 107.57L48.07 114.381L48.1251 114.365V101.905L48.0727 101.919L34.7345 98.3174L33.8818 88.7656Z" fill="#EBEBEB"/>
<path d="M9.19287 0.0625H15.2791V6.07569H20.8466V0.0625H26.9331V18.2719H20.8468V12.1743H15.2794V18.2719H9.19313L9.19287 0.0625Z" fill="black"/>
<path d="M34.9367 6.10101H29.5786V0.0625H46.3839V6.10101H41.0234V18.2719H34.9369L34.9367 6.10101Z" fill="black"/>
<path d="M49.0508 0.0625H55.3971L59.3009 6.46074L63.2008 0.0625H69.5494V18.2719H63.4882V9.24633L59.3009 15.7208H59.1962L55.0059 9.24633V18.2719H49.0508V0.0625Z" fill="black"/>
<path d="M72.5786 0.0625H78.6667V12.2529H87.2257V18.2719H72.5786V0.0625Z" fill="black"/>
<path d="M48.0835 82.7773H62.8311L61.4409 98.3098L48.0835 101.915V114.375L72.6358 107.57L72.8159 105.547L75.6302 74.017L75.9224 70.801H48.0835V82.7773Z" fill="white"/>
<path d="M48.0835 58.5078V58.5371H77.0122L77.2525 55.8451L77.7981 49.7736L78.0846 46.5605H48.0835V58.5078Z" fill="white"/>
</g>
<defs>
<clipPath id="clip0_13_41">
<rect width="96" height="135.375" fill="white" transform="translate(0.125 0.0625)"/>
</clipPath>
</defs>
</svg>
