<svg width="128" height="128" viewBox="0 0 128 128" fill="none" xmlns="http://www.w3.org/2000/svg">
<g clip-path="url(#clip0_13_70)">
<path d="M88 16V28H40V16H8V48H40V36H68.0936C65.4496 39.4426 64.0112 43.6592 64 48V80C63.9961 83.1814 62.7305 86.2314 60.481 88.481C58.2314 90.7305 55.1814 91.9961 52 92H40V80H8V112H40V100H52C57.3023 99.9934 62.3856 97.8842 66.1349 94.1349C69.8842 90.3856 71.9934 85.3023 72 80V48C71.9991 46.4248 72.3084 44.8649 72.9104 43.4094C73.5124 41.9538 74.3952 40.6311 75.5085 39.5167C76.6218 38.4024 77.9436 37.5183 79.3986 36.9148C80.8536 36.3114 82.4133 36.0006 83.9884 36H88V48H120V16H88ZM32 40H16V24H32V40ZM32 104H16V88H32V104ZM112 40H96V24H112V40Z" fill="black"/>
</g>
<defs>
<clipPath id="clip0_13_70">
<rect width="128" height="128" fill="white"/>
</clipPath>
</defs>
</svg>
