<svg width="96" height="136" viewBox="0 0 96 136" fill="none" xmlns="http://www.w3.org/2000/svg">
<g clip-path="url(#clip0_13_122)">
<path d="M47.9415 135.656L8.87319 124.761L0.166992 26.6597H95.8331L87.1177 124.745L47.9415 135.656Z" fill="#264DE4"/>
<path d="M79.6563 118.5L87.1042 34.6809H48V127.316L79.6563 118.5Z" fill="#2965F1"/>
<path d="M20.126 71.0652L21.1994 83.0967H48.0003V71.0652H20.126Z" fill="#EBEBEB"/>
<path d="M17.9688 46.7126L19.0575 58.7445H47.9999V46.7126H17.9688Z" fill="#EBEBEB"/>
<path d="M48.0001 102.313L47.9477 102.327L34.6095 98.7086L33.7568 89.1128H21.7344L23.4123 108.004L47.945 114.846L48.0001 114.831V102.313Z" fill="#EBEBEB"/>
<path d="M22.6812 0H37.1866V6.09394H28.7471V12.1879H37.1866V18.2818H22.6812V0Z" fill="black"/>
<path d="M40.0879 0H54.5934V5.29908H46.1538V6.35889H54.5934V18.5468H40.0879V12.9827H48.5274V11.9229H40.0879V0Z" fill="black"/>
<path d="M57.4946 0H72.0001V5.29908H63.5606V6.35889H72.0001V18.5468H57.4946V12.9827H65.9342V11.9229H57.4946V0Z" fill="black"/>
<path d="M75.7974 71.0651L77.9596 46.7126H47.9585V58.7445H64.8345L63.7447 71.0651H47.9585V83.0966H62.7061L61.3159 98.7008L47.9585 102.323V114.84L72.5108 108.004L72.6909 105.971L75.5052 74.2959L75.7974 71.0651Z" fill="white"/>
</g>
<defs>
<clipPath id="clip0_13_122">
<rect width="96" height="136" fill="white"/>
</clipPath>
</defs>
</svg>
