<svg width="108" height="108" viewBox="0 0 108 108" fill="none" xmlns="http://www.w3.org/2000/svg">
<g clip-path="url(#clip0_13_76)">
<path d="M0 54C0 24.1767 24.1767 0 54 0C83.8233 0 108 24.1767 108 54C108 83.8233 83.8233 108 54 108C24.1767 108 0 83.8233 0 54Z" fill="#333333"/>
<path d="M43.1999 86.3996C49.1647 86.3996 53.9999 81.5643 53.9999 75.5996V64.7996H43.1999C37.2352 64.7996 32.3999 69.635 32.3999 75.5996C32.3999 81.5643 37.2352 86.3996 43.1999 86.3996Z" fill="#0ACF83"/>
<path d="M32.3999 53.9999C32.3999 48.0352 37.2352 43.2 43.1999 43.2H53.9999V64.7999H43.1999C37.2352 64.7999 32.3999 59.9645 32.3999 53.9999Z" fill="#A259FF"/>
<path d="M32.3999 32.4001C32.3999 26.4354 37.2352 21.6001 43.1999 21.6001H53.9999V43.2001H43.1999C37.2352 43.2001 32.3999 38.3647 32.3999 32.4001Z" fill="#F24E1E"/>
<path d="M54 21.6001H64.8C70.7647 21.6001 75.6 26.4354 75.6 32.4001C75.6 38.3647 70.7647 43.2001 64.8 43.2001H54V21.6001Z" fill="#FF7262"/>
<path d="M75.6 53.9999C75.6 59.9645 70.7647 64.7999 64.8 64.7999C58.8352 64.7999 54 59.9645 54 53.9999C54 48.0352 58.8352 43.2 64.8 43.2C70.7647 43.2 75.6 48.0352 75.6 53.9999Z" fill="#1ABCFE"/>
</g>
<defs>
<clipPath id="clip0_13_76">
<rect width="108" height="108" fill="white"/>
</clipPath>
</defs>
</svg>
