<svg width="160" height="160" viewBox="0 0 160 160" fill="none" xmlns="http://www.w3.org/2000/svg">
<path d="M134.5 84.9999C134.5 94.4999 134.5 103.5 134.5 113C134.5 116.5 133 119 131 121.5C126.5 126.5 120.5 127 114.5 124.5C113 124 111.5 123 110 122C108.5 121 108 119 109 117.5C110 116 112 115.5 113.5 116.5C115.5 117.5 117.5 118.5 120 118.5C123 118.5 126.5 116.5 127 113.5C127 113 127.5 112.5 127.5 112C127.5 101.5 127.5 91.4999 127.5 81.4999C127.5 73.9999 127.5 65.9999 127.5 58.4999C127.5 55.4999 126 53.4999 123 52.4999C101 44.9999 78.5005 37.9999 56.5005 30.9999C52.5005 29.9999 49.0005 28.9999 45.0005 27.4999C44.0005 27.4999 43.5005 26.9999 42.5005 26.9999C39.0005 26.4999 36.0005 28.9999 36.0005 32.9999C36.0005 45.4999 36.0005 57.9999 36.0005 70.4999C36.0005 70.9999 36.0005 71.4999 35.5005 71.9999C33.5005 74.4999 30.0005 74.4999 28.5005 71.9999C28.0005 71.4999 28.0005 71.4999 28.0005 70.9999C28.0005 57.9999 28.0005 44.4999 28.0005 31.4999C28.0005 26.4999 32.0005 21.4999 38.0005 20.4999C40.0005 19.4999 42.5005 19.9999 44.5005 20.9999C47.5005 21.9999 50.5005 22.9999 54.0005 23.9999C68.0005 27.9999 82.5005 32.4999 96.5005 36.4999C106.5 39.4999 116.5 42.4999 126.5 45.4999C129.5 46.4999 131.5 48.4999 133 51.4999C134 53.9999 134 56.4999 134 58.4999C134 58.9999 134 58.9999 134 59.4999C134.5 67.4999 134.5 75.9999 134.5 84.9999Z" fill="#EDA41E"/>
<path d="M87.5 96.5002C87.5 85.0002 87.5 73.5002 87.5 61.5002C87.5 58.5002 89.5 56.5002 92.5 56.5002C94.5 56.5002 96 56.5002 98 56.5002C101 56.5002 102.5 58.5002 102.5 61.0002C102.5 84.5002 102.5 107.5 102.5 131C102.5 134 100.5 135.5 98 135.5C96 135.5 94.5 135.5 92.5 135.5C89.5 135.5 88 133.5 88 131C87.5 119.5 87.5 108 87.5 96.5002Z" fill="#F2BB56"/>
<path d="M66.5015 98.5005C66.5015 90.0005 66.5015 81.5005 66.5015 73.0005C66.5015 70.0005 68.5015 68.0005 71.5015 68.0005C73.0015 68.0005 74.5015 68.0005 76.0015 68.0005C78.5015 68.0005 80.5015 70.0005 80.5015 72.5005C80.5015 85.0005 80.5015 97.0005 80.5015 109.5C80.5015 114 80.5015 119 80.5015 123.5C80.5015 126.5 78.5015 128.5 75.5015 128.5C74.0015 128.5 72.5015 128.5 71.0015 128.5C68.5015 128.5 66.5015 126.5 66.5015 124C66.5015 115.5 66.5015 107 66.5015 98.5005Z" fill="#F2BB56"/>
<path d="M60.0015 98.0007C60.0015 104.501 60.0015 111.001 60.0015 117.501C60.0015 120.501 58.0015 122.501 55.0015 122.501C53.5015 122.501 52.0015 122.501 51.0015 122.501C48.5015 122.501 46.5015 120.501 46.5015 118.001C46.5015 117.501 46.5015 117.001 46.5015 116.001C46.5015 103.501 46.5015 91.5007 46.5015 79.0007C46.5015 76.5007 48.0015 75.0007 50.0015 74.5007C50.5015 74.5007 51.0015 74.5007 51.5015 74.5007C53.0015 74.5007 54.5015 74.5007 56.0015 74.5007C59.0015 74.5007 60.5015 76.5007 60.5015 79.0007C60.0015 85.0007 60.0015 91.5007 60.0015 98.0007Z" fill="#F2BB56"/>
<path d="M39.501 97.9998C39.501 102 39.501 106.5 39.501 110.5C39.501 113 37.501 115 35.001 115C33.501 115 32.001 115 30.501 115C28.001 115 26.001 113 26.001 110.5C26.001 102 26.001 93.4998 26.001 85.4998C26.001 82.9998 28.001 80.9998 30.501 80.9998C32.001 80.9998 33.501 80.9998 35.501 80.9998C38.001 80.9998 40.001 82.9998 40.001 85.4998C39.001 89.4998 39.001 93.9998 39.501 97.9998Z" fill="#F2BB56"/>
</svg>
